PathFileType	4	(X/Y/Z)	C:\Users\Basilio\Documents\Thesis Gigler\squatting_fais\c3dfiles\044\SJ_pre3\markers_experimental.trc
DataRate	CameraRate	NumFrames	NumMarkers	Units	OrigDataRate	OrigDataStartFrame	OrigNumFrames
200.000000	200.000000	4	63	mm	200.000000	535	1427
Frame#	Time	FHD			LBHD			RBHD			C7			T10			CLAV			LSHO			LUUPA			LMUPA			LDUPA			LLEP			LMEP			LRAD			LUL			LRFIN			RSHO			RUPA1			RMUPA			RDUPA			RLEP			RMEP			RRAD			RUL			RUFIN			RASI			USACR			LSACR			RSACR			LTHI1			LTHI2			LTHI3			LTHI4			LLFC			LMFC			LTIB1			LTIB2			LTIB3			LTIB4			LLMAL			LMMAL			LHEE			LMT1			LMT2			LMT5			RTHI			RTHI2			RTHI3			RTHI4			RLFC			RMFC			RTIB1			RTIB2			RTIB3			RTIB4			RLMAL			RMMAL			RHEE			RMT1			RMT2			RMT5			LASI			*61			*62			
		X1	Y1	Z1	X2	Y2	Z2	X3	Y3	Z3	X4	Y4	Z4	X5	Y5	Z5	X6	Y6	Z6	X7	Y7	Z7	X8	Y8	Z8	X9	Y9	Z9	X10	Y10	Z10	X11	Y11	Z11	X12	Y12	Z12	X13	Y13	Z13	X14	Y14	Z14	X15	Y15	Z15	X16	Y16	Z16	X17	Y17	Z17	X18	Y18	Z18	X19	Y19	Z19	X20	Y20	Z20	X21	Y21	Z21	X22	Y22	Z22	X23	Y23	Z23	X24	Y24	Z24	X25	Y25	Z25	X26	Y26	Z26	X27	Y27	Z27	X28	Y28	Z28	X29	Y29	Z29	X30	Y30	Z30	X31	Y31	Z31	X32	Y32	Z32	X33	Y33	Z33	X34	Y34	Z34	X35	Y35	Z35	X36	Y36	Z36	X37	Y37	Z37	X38	Y38	Z38	X39	Y39	Z39	X40	Y40	Z40	X41	Y41	Z41	X42	Y42	Z42	X43	Y43	Z43	X44	Y44	Z44	X45	Y45	Z45	X46	Y46	Z46	X47	Y47	Z47	X48	Y48	Z48	X49	Y49	Z49	X50	Y50	Z50	X51	Y51	Z51	X52	Y52	Z52	X53	Y53	Z53	X54	Y54	Z54	X55	Y55	Z55	X56	Y56	Z56	X57	Y57	Z57	X58	Y58	Z58	X59	Y59	Z59	X60	Y60	Z60	X61	Y61	Z61	X62	Y62	Z62	X63	Y63	Z63	

536	2.675	107.5373306274414	1256.713500976563	-952.1218872070315	-39.64962387084962	1236.443969726563	-1003.642456054688	-55.49176025390626	1222.633056640625	-838.0716552734377	-143.7967224121094	1132.792114257813	-924.601257324219	-375.7563781738282	940.2944335937502	-904.5972900390627	-65.9626922607422	1004.0703125	-927.4924926757815	-79.42891693115236	1064.956176757813	-1100.285766601563	-258.5454711914063	1006.730285644531	-1241.635864257813	-268.6488037109376	959.6655883789065	-1233.35107421875	-314.2908325195313	976.5534667968752	-1269.815185546875	-360.6521606445313	938.8026123046877	-1280.980834960938	-406.1530761718751	987.6755981445315	-1228.444580078125	-490.6090393066407	751.7949829101564	-1112.037475585938	-463.533905029297	713.7871704101564	-1165.345703125	-436.3675537109376	736.3204345703126	-1074.940551757813	-71.7389373779297	1059.093017578125	-740.2252807617189	-214.2617645263672	991.3552856445315	-577.8367919921876	-223.0863952636719	942.1834106445315	-585.2429199218751	-260.1661987304688	954.2459106445315	-539.2425537109376	-301.0195312500001	909.047302246094	-522.7741699218751	-365.9281005859376	956.9785156250002	-557.0510253906251	-464.5333862304689	725.4929199218751	-663.2101440429689	-421.3603515625001	688.2308349609376	-617.3157348632814	-409.7922668457032	720.8580932617189	-713.5206909179689	-369.6414489746094	685.6601562500001	-791.5583496093752	-487.7037658691407	812.2687988281252	-890.2907714843752	-515.8958740234376	791.129821777344	-914.6491699218752	-508.7059631347657	791.5816650390627	-859.185974121094	-403.6636657714845	582.2412109375001	-1130.3662109375	-321.6604003906251	571.1553344726564	-1155.830688476563	-295.5588989257813	608.8206176757814	-1146.476318359375	-292.4851684570313	519.2453002929689	-1165.2548828125	-164.265609741211	440.902313232422	-1180.166137695313	-142.4410705566407	435.1235351562501	-1067.703491210938	-190.0279998779297	278.6398925781251	-1092.920288085938	-242.3086242675782	244.4706726074219	-1157.289306640625	-213.0235900878907	232.0039825439454	-1121.975952148438	-262.0515441894532	175.371078491211	-1081.566650390625	-362.2122192382813	88.24263000488283	-1116.879638671875	-337.9667358398438	101.7057876586914	-1033.255249023438	-426.8651733398439	48.58388519287111	-1066.209228515625	-210.7879486083985	62.86129760742189	-1058.783813476563	-214.6952362060547	63.35437011718751	-1105.178466796875	-250.465805053711	39.06653213500977	-1149.6611328125	-339.6456604003907	536.6852416992189	-686.4820556640626	-272.0017089843751	545.4506835937501	-679.3571777343751	-255.9114990234376	571.7891845703126	-684.9757080078126	-215.6405029296876	480.7046508789064	-683.7354736328126	-146.4466094970703	419.026580810547	-691.6523437500001	-142.09521484375	420.2920532226564	-809.4155883789065	-149.1133880615235	290.6157531738282	-732.6232910156251	-248.6342468261719	263.7276916503907	-689.2528076171876	-216.7403717041016	238.5281829833985	-709.5567626953126	-237.3665161132813	194.5906219482422	-741.5694580078126	-372.4668273925782	90.88491821289064	-732.1881103515626	-348.9786071777344	100.5600662231446	-817.9514770507815	-434.4266662597657	49.93418502807619	-784.244567871094	-221.7508697509766	62.88110351562501	-787.1005859375002	-217.8972930908204	60.37399291992189	-748.4850463867189	-257.1879577636719	39.65033340454102	-698.6251831054689	-379.2630615234376	695.0068969726564	-1019.935607910156	nan	nan	nan	nan	nan	nan	
537	2.68	108.2148208618164	1251.865112304688	-951.8121337890627	-38.60589599609376	1231.9306640625	-1003.377563476563	-54.13488006591798	1218.389038085938	-837.901794433594	-142.7415466308594	1128.55126953125	-924.5445556640627	-375.2161254882813	936.7143554687502	-904.4824218750002	-65.3721389770508	1000.143676757813	-927.4005126953127	-78.72680664062501	1060.457153320313	-1100.087646484375	-257.5969848632813	1003.111755371094	-1241.986572265625	-267.9245910644532	955.7293090820315	-1233.394775390625	-313.4017333984376	972.6270751953127	-1270.096069335938	-359.8631896972657	935.2338867187502	-1281.059692382813	-405.7322998046876	984.7230224609377	-1228.707275390625	-490.7705688476564	748.7424316406251	-1111.934692382813	-463.9732971191407	711.1762695312501	-1165.202514648438	-436.4665832519532	733.4511108398439	-1074.710693359375	-70.78037261962892	1054.636108398438	-740.2763061523439	-213.0176544189454	987.9737548828127	-577.8455810546876	-222.3371276855469	938.5028076171877	-585.1387329101564	-259.3186340332032	950.706237792969	-539.0134277343751	-300.4313964843751	905.486999511719	-522.4907226562501	-364.9703369140626	953.8579101562502	-556.9287109375001	-464.6421508789064	722.6661376953126	-663.0073242187501	-421.646209716797	685.4014282226564	-617.1981201171876	-409.8470153808595	718.1760864257814	-713.3580322265626	-369.7020874023438	682.9553833007814	-791.2510375976565	-487.7828979492189	809.2393188476565	-890.294372558594	-515.8770751953126	788.1101684570315	-914.529479980469	-508.7169799804689	788.4788818359377	-859.1517333984377	-403.5779113769532	580.1328125000001	-1130.378295898438	-321.5074462890626	569.4334716796876	-1155.869995117188	-295.6304931640626	607.0469970703126	-1146.2099609375	-292.1311340332032	517.5889282226564	-1165.363403320313	-163.1252136230469	440.0166931152345	-1180.477783203125	-141.9990386962891	434.130828857422	-1068.008544921875	-189.3663024902344	278.1845092773438	-1093.064331054688	-241.8638763427735	244.0868377685547	-1157.328002929688	-212.6357727050782	232.0213775634766	-1121.929443359375	-261.6246643066407	175.230453491211	-1081.598754882813	-362.1224670410157	88.33546447753908	-1116.858764648438	-337.8719482421876	101.6653060913086	-1033.173706054688	-426.8364257812501	48.62403488159181	-1066.1728515625	-209.9278564453126	63.01330566406251	-1059.0126953125	-214.691390991211	63.26430511474611	-1105.175415039063	-250.500961303711	39.09277725219727	-1149.675048828125	-339.1246643066407	534.2033081054689	-685.8994750976564	-271.1199035644532	543.1589355468751	-678.6883544921876	-255.5240325927735	570.2742919921876	-684.6708374023439	-214.8711853027344	479.4644165039064	-683.6569824218751	-145.3998718261719	418.3697204589845	-691.8229980468751	-141.2101745605469	419.6744384765626	-809.356628417969	-148.2604217529297	290.1705322265626	-732.9215698242189	-247.9602813720704	263.4652709960938	-689.4417114257814	-215.7688293457032	238.3052368164063	-709.8679199218751	-236.8114776611329	194.2017059326172	-741.7817382812501	-372.3923950195313	90.8921356201172	-732.2454223632814	-348.8827819824219	100.5451431274414	-818.0445556640627	-434.540496826172	50.00940704345705	-784.3223876953127	-221.6195220947266	62.86178207397462	-787.1097412109377	-217.8090057373047	60.30469131469728	-748.5939941406251	-257.1300048828126	39.79000854492188	-698.6422729492189	-378.9460449218751	692.1566772460939	-1019.93994140625	nan	nan	nan	nan	nan	nan	
538	2.685	109.7981567382813	1247.60546875	-951.9597167968752	-37.21158599853516	1227.645874023438	-1003.512573242188	-53.33591079711915	1213.982788085938	-837.9310302734377	-141.6845092773438	1124.115600585938	-924.2910156250002	-374.8356323242188	933.318786621094	-904.414245605469	-64.65663909912111	995.577819824219	-927.3066406250002	-77.83249664306642	1056.440795898438	-1100.0625	-256.8054504394532	998.8100585937502	-1241.972778320313	-267.3303527832032	952.078796386719	-1233.291015625	-312.8707885742188	968.6857910156252	-1270.14111328125	-359.3556518554688	931.549011230469	-1281.144409179688	-404.9315795898439	981.6401367187502	-1228.967529296875	-490.6856079101564	745.7918701171876	-1111.832397460938	-463.6028137207032	707.9242553710939	-1164.8740234375	-436.5462036132814	730.7897949218751	-1074.535278320313	-69.93528747558595	1050.504760742188	-740.4782104492189	-212.3704071044922	983.8064575195315	-577.7774658203126	-221.6087188720704	934.806091308594	-585.0452270507814	-258.6189575195313	947.0508422851565	-538.7575683593751	-299.8950500488282	902.1123657226565	-522.0368652343751	-364.6416015625001	951.0422363281252	-556.5892333984376	-464.856170654297	719.8984375000001	-662.9259643554689	-421.9695434570314	682.2797851562501	-616.9097900390626	-409.8306579589845	715.3281250000001	-713.1630249023439	-370.0420532226563	680.3366699218751	-791.1140747070315	-487.4596557617189	806.1992797851565	-890.3569335937502	-515.6856079101564	785.0800781250002	-914.5015869140627	-508.6816711425782	785.5910644531252	-859.068786621094	-403.4353027343751	578.0001831054689	-1130.320556640625	-321.2414550781251	567.7754516601564	-1155.814086914063	-295.7585449218751	605.2705078125001	-1145.883422851563	-291.5584106445313	516.0941772460939	-1165.294067382813	-162.3837127685547	439.4642639160157	-1180.460327148438	-141.1576843261719	433.2230834960939	-1068.366821289063	-188.7916564941407	277.7789611816407	-1093.054321289063	-240.4537048339844	244.3415985107422	-1157.146606445313	-212.1454467773438	232.1571197509766	-1121.95263671875	-261.2592163085938	174.912826538086	-1081.513793945313	-361.9686584472657	88.46509552001955	-1116.817138671875	-337.7543334960938	101.6138153076172	-1033.025268554688	-426.7429199218751	48.64516448974611	-1066.129638671875	-209.8927001953126	62.63219451904298	-1058.711181640625	-214.6008911132813	63.20396041870119	-1105.20263671875	-250.431869506836	39.02482223510743	-1149.627563476563	-338.7231140136719	532.6593017578126	-685.9381103515626	-270.8529663085938	541.4930419921876	-678.7103271484376	-255.3988037109376	569.0355224609376	-685.0654296875001	-214.2538299560547	478.0888671875001	-683.4527587890626	-144.404541015625	417.6759033203126	-691.9308471679689	-140.2584991455078	418.7478027343751	-809.4635009765627	-147.7884216308594	289.9871520996094	-732.6558227539064	-247.4839172363282	263.1717224121094	-689.2744140625001	-215.3348693847657	238.0808715820313	-709.8054199218751	-236.7290039062501	194.0516815185547	-741.8641967773439	-372.3140563964844	90.96824645996095	-732.3405151367189	-348.7428283691407	100.5397033691407	-818.183532714844	-434.4737854003907	50.0100784301758	-784.3664550781252	-221.5827026367188	62.77590942382814	-787.1270141601565	-217.7619934082032	60.28012466430665	-748.6003417968751	-257.1187744140626	39.73760604858399	-698.6924438476564	-382.3200073242188	689.1448364257814	-1017.267211914063	nan	nan	nan	nan	nan	nan	
539	2.69	110.6161499023438	1242.956176757813	-951.7852783203127	-36.3064193725586	1223.346801757813	-1003.181091308594	-51.90478134155275	1209.869750976563	-837.9342041015627	-140.4335021972657	1120.631958007813	-924.6391601562502	-374.0652770996094	929.9363403320315	-904.3925781250002	-63.7761573791504	991.4292602539065	-927.4797973632815	-76.94703674316408	1052.162109375	-1099.955200195313	-255.8864898681641	994.9663085937502	-1242.129638671875	-266.7204589843751	948.2866821289065	-1233.252807617188	-312.0844726562501	964.9526977539065	-1270.210815429688	-358.7126770019532	928.060485839844	-1281.241821289063	-404.0532531738282	978.3902587890627	-1229.052612304688	-490.7005920410157	742.6943359375001	-1111.751098632813	-464.107391357422	705.2174072265626	-1164.715942382813	-436.5756225585939	727.8798828125001	-1074.356201171875	-69.02873992919923	1046.443115234375	-740.5075073242189	-211.5782318115235	980.5591430664065	-577.3292236328126	-221.0537261962891	931.3142700195315	-584.7779541015626	-257.8573303222657	943.5151367187502	-538.5901489257814	-299.2572326660157	898.8031005859377	-522.1221923828126	-363.8064270019532	947.9490356445315	-556.3646850585939	-464.9417419433595	717.2476806640626	-662.8164062500001	-422.1878051757814	679.3656005859376	-616.8884277343751	-409.9954833984376	712.7225952148439	-712.8887329101564	-369.7983398437501	677.5556030273439	-790.7346191406252	-487.1900024414064	802.899108886719	-890.215515136719	-515.5808105468751	781.921813964844	-914.4708251953127	-508.6405639648439	782.5013427734377	-859.0095214843752	-403.1852111816407	575.7680664062501	-1130.367431640625	-321.1127014160157	566.3778076171876	-1155.599487304688	-295.8173828125001	603.5227050781251	-1145.509399414063	-291.0267028808594	514.6334838867189	-1165.230346679688	-161.5442962646485	438.7717590332032	-1180.212524414063	-139.6401672363282	432.8527832031251	-1068.014282226563	-188.1443786621094	277.1318054199219	-1093.024291992188	-240.7211303710938	243.433578491211	-1157.290771484375	-211.6624145507813	231.4322509765626	-1121.931518554688	-260.6483764648438	174.225082397461	-1081.442504882813	-361.7954101562501	88.56672668457033	-1116.703125	-337.6849365234376	101.5542297363282	-1032.932861328125	-426.6956787109376	48.71249008178712	-1066.04931640625	-209.8114624023438	62.58678054809572	-1058.67724609375	-214.5970458984376	63.10648727416994	-1105.20654296875	-250.4805450439454	39.10993194580079	-1149.663940429688	-338.2969970703126	530.6298217773439	-685.7191162109376	-270.4985351562501	540.2597656250001	-678.6965942382814	-255.0626525878907	567.5822753906251	-684.8773193359376	-213.425521850586	477.0596618652345	-683.4666748046876	-143.3160705566407	416.9761047363282	-691.9127807617189	-139.3094940185547	418.1987304687501	-809.6348266601565	-146.9440155029297	289.0452270507813	-732.6649169921876	-246.9307098388672	262.7217102050782	-689.3051147460939	-215.0652618408204	237.4828796386719	-710.0203857421876	-236.3599700927735	193.4907226562501	-741.8546752929689	-372.1851806640626	90.96307373046876	-732.4331665039064	-348.7129211425782	100.477523803711	-818.2681884765627	-434.4453125000001	50.00308990478517	-784.4956665039065	-221.4601745605469	62.80641937255861	-787.1447753906252	-217.7423095703126	60.10136795043947	-748.6361083984376	-257.0860595703126	39.82612228393555	-698.6635742187501	-382.0530395507813	686.4416503906251	-1017.227600097656	nan	nan	nan	nan	nan	nan	
